<mxfile host="65bd71144e">
    <diagram id="gVesz4iFj0m_UwbCprYO" name="第 1 页">
        <mxGraphModel dx="593" dy="745" grid="1" gridSize="10" guides="1" tooltips="1" connect="1" arrows="1" fold="1" page="1" pageScale="1" pageWidth="1169" pageHeight="1654" math="0" shadow="0">
            <root>
                <mxCell id="0"/>
                <mxCell id="1" parent="0"/>
                <mxCell id="2" value="4 Bytes" style="text;html=1;strokeColor=none;fillColor=none;align=center;verticalAlign=middle;whiteSpace=wrap;rounded=0;" vertex="1" parent="1">
                    <mxGeometry x="200" y="340" width="60" height="30" as="geometry"/>
                </mxCell>
                <mxCell id="3" value="0x18 0x00 0x00 0x00" style="rounded=0;whiteSpace=wrap;html=1;fillColor=none;" vertex="1" parent="1">
                    <mxGeometry x="150" y="410" width="160" height="40" as="geometry"/>
                </mxCell>
                <mxCell id="4" value="array[0]" style="rounded=0;whiteSpace=wrap;html=1;fillColor=none;" vertex="1" parent="1">
                    <mxGeometry x="150" y="370" width="160" height="40" as="geometry"/>
                </mxCell>
                <mxCell id="5" value="4 Bytes" style="text;html=1;strokeColor=none;fillColor=none;align=center;verticalAlign=middle;whiteSpace=wrap;rounded=0;" vertex="1" parent="1">
                    <mxGeometry x="360" y="340" width="60" height="30" as="geometry"/>
                </mxCell>
                <mxCell id="6" value="0x2a 0x00 0x00 0x00" style="rounded=0;whiteSpace=wrap;html=1;fillColor=none;" vertex="1" parent="1">
                    <mxGeometry x="310" y="410" width="160" height="40" as="geometry"/>
                </mxCell>
                <mxCell id="7" value="array[1]" style="rounded=0;whiteSpace=wrap;html=1;fillColor=none;" vertex="1" parent="1">
                    <mxGeometry x="310" y="370" width="160" height="40" as="geometry"/>
                </mxCell>
            </root>
        </mxGraphModel>
    </diagram>
</mxfile>